<mxfile host="app.diagrams.net" modified="2020-04-22T03:02:20.633Z" agent="5.0 (Windows NT 10.0; Win64; x64) AppleWebKit/537.36 (KHTML, like Gecko) Chrome/80.0.3987.163 Safari/537.36" etag="Yo1zQvRtXuRch8nlY1XA" version="12.9.14" type="github">
  <diagram id="NRJaBoBYYTCjlNEpA3Uv" name="Page-1">
    <mxGraphModel dx="1662" dy="762" grid="1" gridSize="10" guides="1" tooltips="1" connect="1" arrows="1" fold="1" page="1" pageScale="1" pageWidth="827" pageHeight="1169" math="0" shadow="0">
      <root>
        <mxCell id="0" />
        <mxCell id="1" parent="0" />
        <mxCell id="r95pZQOVsIKg5Rijb9fw-56" value="" style="endArrow=classic;startArrow=classic;html=1;strokeColor=#E6D0DE;" edge="1" parent="1">
          <mxGeometry width="50" height="50" relative="1" as="geometry">
            <mxPoint x="880" y="149.31" as="sourcePoint" />
            <mxPoint x="560" y="149" as="targetPoint" />
          </mxGeometry>
        </mxCell>
        <mxCell id="r95pZQOVsIKg5Rijb9fw-26" value="" style="endArrow=none;dashed=1;html=1;strokeColor=#E6D0DE;" edge="1" parent="1" target="r95pZQOVsIKg5Rijb9fw-2">
          <mxGeometry width="50" height="50" relative="1" as="geometry">
            <mxPoint x="80" y="260" as="sourcePoint" />
            <mxPoint x="80" y="20" as="targetPoint" />
          </mxGeometry>
        </mxCell>
        <mxCell id="r95pZQOVsIKg5Rijb9fw-1" value="" style="endArrow=none;html=1;" edge="1" parent="1" target="r95pZQOVsIKg5Rijb9fw-59">
          <mxGeometry width="50" height="50" relative="1" as="geometry">
            <mxPoint x="80" y="80" as="sourcePoint" />
            <mxPoint x="1240" y="80" as="targetPoint" />
          </mxGeometry>
        </mxCell>
        <mxCell id="r95pZQOVsIKg5Rijb9fw-2" value="" style="shape=ellipse;fillColor=#B5739D;strokeColor=none;html=1" vertex="1" parent="1">
          <mxGeometry x="70" y="70" width="20" height="20" as="geometry" />
        </mxCell>
        <mxCell id="r95pZQOVsIKg5Rijb9fw-3" value="&lt;font color=&quot;#b5739d&quot;&gt;4.20&lt;/font&gt;" style="text;html=1;strokeColor=none;fillColor=none;align=center;verticalAlign=middle;whiteSpace=wrap;rounded=0;" vertex="1" parent="1">
          <mxGeometry x="60" y="50" width="40" height="20" as="geometry" />
        </mxCell>
        <mxCell id="r95pZQOVsIKg5Rijb9fw-4" value="" style="shape=ellipse;fillColor=#000000;strokeColor=none;html=1" vertex="1" parent="1">
          <mxGeometry x="230" y="70" width="20" height="20" as="geometry" />
        </mxCell>
        <mxCell id="r95pZQOVsIKg5Rijb9fw-5" value="&lt;b&gt;4.26&lt;/b&gt;" style="text;html=1;strokeColor=none;fillColor=none;align=center;verticalAlign=middle;whiteSpace=wrap;rounded=0;" vertex="1" parent="1">
          <mxGeometry x="220" y="50" width="40" height="20" as="geometry" />
        </mxCell>
        <mxCell id="r95pZQOVsIKg5Rijb9fw-8" value="" style="shape=ellipse;fillColor=#000000;strokeColor=none;html=1" vertex="1" parent="1">
          <mxGeometry x="390" y="70" width="20" height="20" as="geometry" />
        </mxCell>
        <mxCell id="r95pZQOVsIKg5Rijb9fw-9" value="4.30" style="text;html=1;strokeColor=none;fillColor=none;align=center;verticalAlign=middle;whiteSpace=wrap;rounded=0;" vertex="1" parent="1">
          <mxGeometry x="380" y="50" width="40" height="20" as="geometry" />
        </mxCell>
        <mxCell id="r95pZQOVsIKg5Rijb9fw-10" value="" style="shape=ellipse;fillColor=#000000;strokeColor=none;html=1" vertex="1" parent="1">
          <mxGeometry x="710" y="70" width="20" height="20" as="geometry" />
        </mxCell>
        <mxCell id="r95pZQOVsIKg5Rijb9fw-11" value="5.15" style="text;html=1;strokeColor=none;fillColor=none;align=center;verticalAlign=middle;whiteSpace=wrap;rounded=0;" vertex="1" parent="1">
          <mxGeometry x="700" y="50" width="40" height="20" as="geometry" />
        </mxCell>
        <mxCell id="r95pZQOVsIKg5Rijb9fw-16" value="" style="shape=ellipse;fillColor=#000000;strokeColor=none;html=1" vertex="1" parent="1">
          <mxGeometry x="870" y="70" width="20" height="20" as="geometry" />
        </mxCell>
        <mxCell id="r95pZQOVsIKg5Rijb9fw-17" value="5.21" style="text;html=1;strokeColor=none;fillColor=none;align=center;verticalAlign=middle;whiteSpace=wrap;rounded=0;" vertex="1" parent="1">
          <mxGeometry x="860" y="50" width="40" height="20" as="geometry" />
        </mxCell>
        <mxCell id="r95pZQOVsIKg5Rijb9fw-18" value="" style="shape=ellipse;fillColor=#000000;strokeColor=none;html=1" vertex="1" parent="1">
          <mxGeometry x="1030" y="70" width="20" height="20" as="geometry" />
        </mxCell>
        <mxCell id="r95pZQOVsIKg5Rijb9fw-19" value="5.29" style="text;html=1;strokeColor=none;fillColor=none;align=center;verticalAlign=middle;whiteSpace=wrap;rounded=0;" vertex="1" parent="1">
          <mxGeometry x="1020" y="50" width="40" height="20" as="geometry" />
        </mxCell>
        <mxCell id="r95pZQOVsIKg5Rijb9fw-20" value="Android" style="text;html=1;strokeColor=none;fillColor=#99CCFF;align=center;verticalAlign=middle;whiteSpace=wrap;rounded=0;" vertex="1" parent="1">
          <mxGeometry y="110" width="60" height="20" as="geometry" />
        </mxCell>
        <mxCell id="r95pZQOVsIKg5Rijb9fw-21" value="iOS" style="text;html=1;strokeColor=none;fillColor=#99CCFF;align=center;verticalAlign=middle;whiteSpace=wrap;rounded=0;" vertex="1" parent="1">
          <mxGeometry y="150" width="60" height="20" as="geometry" />
        </mxCell>
        <mxCell id="r95pZQOVsIKg5Rijb9fw-22" value="PC" style="text;html=1;strokeColor=none;fillColor=#99CCFF;align=center;verticalAlign=middle;whiteSpace=wrap;rounded=0;" vertex="1" parent="1">
          <mxGeometry y="190" width="60" height="20" as="geometry" />
        </mxCell>
        <mxCell id="r95pZQOVsIKg5Rijb9fw-23" value="MAC" style="text;html=1;strokeColor=none;fillColor=#99CCFF;align=center;verticalAlign=middle;whiteSpace=wrap;rounded=0;" vertex="1" parent="1">
          <mxGeometry y="230" width="60" height="20" as="geometry" />
        </mxCell>
        <mxCell id="r95pZQOVsIKg5Rijb9fw-27" value="&lt;b&gt;确认上报方案&lt;/b&gt;" style="text;html=1;strokeColor=none;fillColor=none;align=center;verticalAlign=middle;whiteSpace=wrap;rounded=0;" vertex="1" parent="1">
          <mxGeometry x="120" y="110" width="80" height="20" as="geometry" />
        </mxCell>
        <mxCell id="r95pZQOVsIKg5Rijb9fw-28" value="&lt;b&gt;确认上报方案&lt;/b&gt;" style="text;html=1;strokeColor=none;fillColor=none;align=center;verticalAlign=middle;whiteSpace=wrap;rounded=0;" vertex="1" parent="1">
          <mxGeometry x="120" y="230" width="80" height="20" as="geometry" />
        </mxCell>
        <mxCell id="r95pZQOVsIKg5Rijb9fw-29" value="" style="endArrow=none;dashed=1;html=1;strokeColor=#E6D0DE;" edge="1" parent="1" target="r95pZQOVsIKg5Rijb9fw-4">
          <mxGeometry width="50" height="50" relative="1" as="geometry">
            <mxPoint x="240" y="260" as="sourcePoint" />
            <mxPoint x="80" y="20" as="targetPoint" />
          </mxGeometry>
        </mxCell>
        <mxCell id="r95pZQOVsIKg5Rijb9fw-31" value="实现上报" style="text;html=1;strokeColor=none;fillColor=none;align=center;verticalAlign=middle;whiteSpace=wrap;rounded=0;" vertex="1" parent="1">
          <mxGeometry x="280" y="110" width="80" height="20" as="geometry" />
        </mxCell>
        <mxCell id="r95pZQOVsIKg5Rijb9fw-32" value="" style="endArrow=none;dashed=1;html=1;strokeColor=#E6D0DE;" edge="1" parent="1" target="r95pZQOVsIKg5Rijb9fw-8">
          <mxGeometry width="50" height="50" relative="1" as="geometry">
            <mxPoint x="400" y="260" as="sourcePoint" />
            <mxPoint x="80" y="20" as="targetPoint" />
          </mxGeometry>
        </mxCell>
        <mxCell id="r95pZQOVsIKg5Rijb9fw-33" value="实现上报" style="text;html=1;strokeColor=none;fillColor=none;align=center;verticalAlign=middle;whiteSpace=wrap;rounded=0;" vertex="1" parent="1">
          <mxGeometry x="280" y="230" width="80" height="20" as="geometry" />
        </mxCell>
        <mxCell id="r95pZQOVsIKg5Rijb9fw-34" value="确认上报方案" style="text;html=1;strokeColor=none;fillColor=none;align=center;verticalAlign=middle;whiteSpace=wrap;rounded=0;" vertex="1" parent="1">
          <mxGeometry x="360" y="190" width="80" height="20" as="geometry" />
        </mxCell>
        <mxCell id="r95pZQOVsIKg5Rijb9fw-35" value="实现上报" style="text;html=1;strokeColor=none;fillColor=none;align=center;verticalAlign=middle;whiteSpace=wrap;rounded=0;" vertex="1" parent="1">
          <mxGeometry x="600" y="190" width="80" height="20" as="geometry" />
        </mxCell>
        <mxCell id="r95pZQOVsIKg5Rijb9fw-36" value="" style="endArrow=none;dashed=1;html=1;strokeColor=#E6D0DE;" edge="1" parent="1" target="r95pZQOVsIKg5Rijb9fw-10">
          <mxGeometry width="50" height="50" relative="1" as="geometry">
            <mxPoint x="720" y="260" as="sourcePoint" />
            <mxPoint x="80" y="20" as="targetPoint" />
          </mxGeometry>
        </mxCell>
        <mxCell id="r95pZQOVsIKg5Rijb9fw-38" value="" style="endArrow=classic;startArrow=classic;html=1;strokeColor=#E6D0DE;" edge="1" parent="1">
          <mxGeometry width="50" height="50" relative="1" as="geometry">
            <mxPoint x="80" y="110" as="sourcePoint" />
            <mxPoint x="240" y="110" as="targetPoint" />
          </mxGeometry>
        </mxCell>
        <mxCell id="r95pZQOVsIKg5Rijb9fw-40" value="" style="endArrow=classic;startArrow=classic;html=1;strokeColor=#E6D0DE;" edge="1" parent="1">
          <mxGeometry width="50" height="50" relative="1" as="geometry">
            <mxPoint x="400" y="110" as="sourcePoint" />
            <mxPoint x="240" y="110" as="targetPoint" />
          </mxGeometry>
        </mxCell>
        <mxCell id="r95pZQOVsIKg5Rijb9fw-41" value="" style="endArrow=classic;startArrow=classic;html=1;strokeColor=#E6D0DE;" edge="1" parent="1">
          <mxGeometry width="50" height="50" relative="1" as="geometry">
            <mxPoint x="80" y="229.51999999999998" as="sourcePoint" />
            <mxPoint x="240" y="229.51999999999998" as="targetPoint" />
          </mxGeometry>
        </mxCell>
        <mxCell id="r95pZQOVsIKg5Rijb9fw-42" value="" style="endArrow=classic;startArrow=classic;html=1;strokeColor=#E6D0DE;" edge="1" parent="1">
          <mxGeometry width="50" height="50" relative="1" as="geometry">
            <mxPoint x="400" y="230" as="sourcePoint" />
            <mxPoint x="240" y="229.51999999999998" as="targetPoint" />
          </mxGeometry>
        </mxCell>
        <mxCell id="r95pZQOVsIKg5Rijb9fw-44" value="" style="endArrow=classic;startArrow=classic;html=1;strokeColor=#E6D0DE;" edge="1" parent="1">
          <mxGeometry width="50" height="50" relative="1" as="geometry">
            <mxPoint x="560" y="190" as="sourcePoint" />
            <mxPoint x="240" y="189.51999999999998" as="targetPoint" />
          </mxGeometry>
        </mxCell>
        <mxCell id="r95pZQOVsIKg5Rijb9fw-46" value="完成报表展示" style="text;html=1;strokeColor=none;fillColor=none;align=center;verticalAlign=middle;whiteSpace=wrap;rounded=0;" vertex="1" parent="1">
          <mxGeometry x="580" y="110" width="80" height="20" as="geometry" />
        </mxCell>
        <mxCell id="r95pZQOVsIKg5Rijb9fw-47" value="" style="endArrow=classic;startArrow=classic;html=1;strokeColor=#E6D0DE;" edge="1" parent="1">
          <mxGeometry width="50" height="50" relative="1" as="geometry">
            <mxPoint x="400" y="110" as="sourcePoint" />
            <mxPoint x="880" y="110" as="targetPoint" />
          </mxGeometry>
        </mxCell>
        <mxCell id="r95pZQOVsIKg5Rijb9fw-48" value="完成报表展示" style="text;html=1;strokeColor=none;fillColor=none;align=center;verticalAlign=middle;whiteSpace=wrap;rounded=0;" vertex="1" parent="1">
          <mxGeometry x="580" y="230" width="80" height="20" as="geometry" />
        </mxCell>
        <mxCell id="r95pZQOVsIKg5Rijb9fw-49" value="" style="endArrow=classic;startArrow=classic;html=1;strokeColor=#E6D0DE;" edge="1" parent="1">
          <mxGeometry width="50" height="50" relative="1" as="geometry">
            <mxPoint x="400" y="230" as="sourcePoint" />
            <mxPoint x="880" y="230" as="targetPoint" />
          </mxGeometry>
        </mxCell>
        <mxCell id="r95pZQOVsIKg5Rijb9fw-50" value="" style="endArrow=none;dashed=1;html=1;strokeColor=#E6D0DE;" edge="1" parent="1" target="r95pZQOVsIKg5Rijb9fw-16">
          <mxGeometry width="50" height="50" relative="1" as="geometry">
            <mxPoint x="880" y="260" as="sourcePoint" />
            <mxPoint x="80" y="20" as="targetPoint" />
          </mxGeometry>
        </mxCell>
        <mxCell id="r95pZQOVsIKg5Rijb9fw-51" value="" style="endArrow=none;dashed=1;html=1;strokeColor=#E6D0DE;" edge="1" parent="1" target="r95pZQOVsIKg5Rijb9fw-18">
          <mxGeometry width="50" height="50" relative="1" as="geometry">
            <mxPoint x="1040" y="260" as="sourcePoint" />
            <mxPoint x="80" y="20" as="targetPoint" />
          </mxGeometry>
        </mxCell>
        <mxCell id="r95pZQOVsIKg5Rijb9fw-53" value="" style="endArrow=classic;startArrow=classic;html=1;strokeColor=#E6D0DE;" edge="1" parent="1">
          <mxGeometry width="50" height="50" relative="1" as="geometry">
            <mxPoint x="720" y="190" as="sourcePoint" />
            <mxPoint x="560" y="190" as="targetPoint" />
          </mxGeometry>
        </mxCell>
        <mxCell id="r95pZQOVsIKg5Rijb9fw-57" value="" style="shape=ellipse;fillColor=#000000;strokeColor=none;html=1" vertex="1" parent="1">
          <mxGeometry x="550" y="70" width="20" height="20" as="geometry" />
        </mxCell>
        <mxCell id="r95pZQOVsIKg5Rijb9fw-58" value="5.6" style="text;html=1;strokeColor=none;fillColor=none;align=center;verticalAlign=middle;whiteSpace=wrap;rounded=0;" vertex="1" parent="1">
          <mxGeometry x="540" y="50" width="40" height="20" as="geometry" />
        </mxCell>
        <mxCell id="r95pZQOVsIKg5Rijb9fw-59" value="" style="shape=ellipse;fillColor=#000000;strokeColor=none;html=1" vertex="1" parent="1">
          <mxGeometry x="1190" y="70" width="20" height="20" as="geometry" />
        </mxCell>
        <mxCell id="r95pZQOVsIKg5Rijb9fw-60" value="6.26" style="text;html=1;strokeColor=none;fillColor=none;align=center;verticalAlign=middle;whiteSpace=wrap;rounded=0;" vertex="1" parent="1">
          <mxGeometry x="1180" y="50" width="40" height="20" as="geometry" />
        </mxCell>
        <mxCell id="r95pZQOVsIKg5Rijb9fw-61" value="" style="endArrow=none;dashed=1;html=1;strokeColor=#E6D0DE;" edge="1" parent="1" target="r95pZQOVsIKg5Rijb9fw-59">
          <mxGeometry width="50" height="50" relative="1" as="geometry">
            <mxPoint x="1200" y="260" as="sourcePoint" />
            <mxPoint x="80" y="20" as="targetPoint" />
          </mxGeometry>
        </mxCell>
        <mxCell id="r95pZQOVsIKg5Rijb9fw-62" value="确认上报方案" style="text;html=1;strokeColor=none;fillColor=none;align=center;verticalAlign=middle;whiteSpace=wrap;rounded=0;" vertex="1" parent="1">
          <mxGeometry x="680" y="150" width="80" height="20" as="geometry" />
        </mxCell>
        <mxCell id="r95pZQOVsIKg5Rijb9fw-63" value="" style="endArrow=none;dashed=1;html=1;strokeColor=#E6D0DE;" edge="1" parent="1" target="r95pZQOVsIKg5Rijb9fw-57">
          <mxGeometry width="50" height="50" relative="1" as="geometry">
            <mxPoint x="560" y="260" as="sourcePoint" />
            <mxPoint x="80" y="20" as="targetPoint" />
          </mxGeometry>
        </mxCell>
        <mxCell id="r95pZQOVsIKg5Rijb9fw-64" value="实现上报" style="text;html=1;strokeColor=none;fillColor=none;align=center;verticalAlign=middle;whiteSpace=wrap;rounded=0;" vertex="1" parent="1">
          <mxGeometry x="920" y="150" width="80" height="20" as="geometry" />
        </mxCell>
        <mxCell id="r95pZQOVsIKg5Rijb9fw-65" value="" style="endArrow=classic;startArrow=classic;html=1;strokeColor=#E6D0DE;" edge="1" parent="1">
          <mxGeometry width="50" height="50" relative="1" as="geometry">
            <mxPoint x="880" y="149.30999999999995" as="sourcePoint" />
            <mxPoint x="1040" y="149" as="targetPoint" />
          </mxGeometry>
        </mxCell>
        <mxCell id="r95pZQOVsIKg5Rijb9fw-66" value="" style="endArrow=classic;startArrow=classic;html=1;strokeColor=#E6D0DE;" edge="1" parent="1">
          <mxGeometry width="50" height="50" relative="1" as="geometry">
            <mxPoint x="720" y="190" as="sourcePoint" />
            <mxPoint x="1200" y="190" as="targetPoint" />
          </mxGeometry>
        </mxCell>
        <mxCell id="r95pZQOVsIKg5Rijb9fw-67" value="" style="endArrow=classic;startArrow=classic;html=1;strokeColor=#E6D0DE;" edge="1" parent="1">
          <mxGeometry width="50" height="50" relative="1" as="geometry">
            <mxPoint x="1200" y="150" as="sourcePoint" />
            <mxPoint x="1040" y="150" as="targetPoint" />
          </mxGeometry>
        </mxCell>
        <mxCell id="r95pZQOVsIKg5Rijb9fw-69" value="完成报表展示" style="text;html=1;strokeColor=none;fillColor=none;align=center;verticalAlign=middle;whiteSpace=wrap;rounded=0;" vertex="1" parent="1">
          <mxGeometry x="1080" y="150" width="80" height="20" as="geometry" />
        </mxCell>
        <mxCell id="r95pZQOVsIKg5Rijb9fw-70" value="完成报表展示" style="text;html=1;strokeColor=none;fillColor=none;align=center;verticalAlign=middle;whiteSpace=wrap;rounded=0;" vertex="1" parent="1">
          <mxGeometry x="920" y="190" width="80" height="20" as="geometry" />
        </mxCell>
      </root>
    </mxGraphModel>
  </diagram>
</mxfile>
